<svg id="svg" version="1.1" xmlns="http://www.w3.org/2000/svg" xmlns:xlink="http://www.w3.org/1999/xlink" width="400" height="399.44055944055947" viewBox="0, 0, 400,399.44055944055947"><g id="svgg"><path id="path0" d="M3.596 200.000 L 3.596 396.804 200.100 396.704 L 396.603 396.603 396.603 200.000 L 396.603 3.397 200.100 3.296 L 3.596 3.196 3.596 200.000 M123.077 200.000 L 123.077 238.561 121.878 238.561 L 120.679 238.561 120.679 200.000 L 120.679 161.439 121.878 161.439 L 123.077 161.439 123.077 200.000 M83.916 178.578 C 83.916 178.774,84.404 179.057,85.001 179.207 C 87.652 179.872,92.308 184.603,92.308 186.631 C 92.308 186.995,92.844 188.084,93.499 189.051 C 94.821 191.001,94.988 192.031,94.137 192.976 C 92.981 194.259,93.181 198.781,94.400 198.925 C 94.975 198.993,95.661 199.307,95.924 199.624 C 96.187 199.941,96.546 200.200,96.722 200.200 C 97.059 200.200,99.680 202.505,103.567 206.221 C 106.320 208.852,106.748 210.801,104.895 212.259 C 103.925 213.022,103.896 213.190,103.896 218.011 L 103.896 222.977 82.917 222.977 C 71.379 222.977,61.938 222.827,61.938 222.645 C 61.938 222.233,63.478 217.074,63.926 215.984 C 64.107 215.544,64.475 214.600,64.743 213.886 C 65.012 213.172,65.378 212.587,65.556 212.587 C 65.734 212.587,65.983 212.273,66.109 211.888 C 66.578 210.453,69.110 209.279,73.686 208.376 L 74.844 208.147 73.415 206.671 C 72.629 205.859,71.549 204.325,71.014 203.262 C 70.480 202.198,69.616 201.116,69.095 200.856 C 67.720 200.171,67.145 198.730,67.139 195.953 C 67.135 194.270,66.946 193.349,66.533 193.007 C 65.695 192.311,65.786 190.379,66.698 189.526 C 67.118 189.133,67.588 188.137,67.742 187.313 C 67.895 186.489,68.181 185.814,68.376 185.814 C 68.571 185.814,68.731 185.627,68.731 185.398 C 68.731 184.023,71.437 181.362,74.666 179.560 C 76.934 178.295,83.916 177.553,83.916 178.578 M78.588 180.486 C 78.442 180.633,78.322 182.611,78.322 184.882 L 78.322 189.011 80.120 189.011 L 81.918 189.011 81.918 184.615 L 81.918 180.220 80.386 180.220 C 79.544 180.220,78.735 180.340,78.588 180.486 M74.272 182.204 C 70.821 184.490,68.447 189.011,70.698 189.011 C 71.349 189.011,71.997 189.199,72.139 189.428 C 72.641 190.241,71.447 191.009,69.681 191.009 C 68.719 191.009,67.932 191.189,67.932 191.409 C 67.932 191.949,92.169 191.956,92.503 191.416 C 92.659 191.164,89.196 190.985,82.836 190.916 C 73.229 190.812,72.927 190.785,72.927 190.010 C 72.927 189.355,73.234 189.189,74.625 189.088 L 76.324 188.965 76.324 184.992 C 76.324 182.807,76.265 181.019,76.192 181.019 C 76.120 181.019,75.256 181.552,74.272 182.204 M83.916 185.052 L 83.916 189.011 87.503 189.011 L 91.089 189.011 90.708 188.009 C 89.611 185.123,86.647 181.808,84.711 181.302 C 83.957 181.105,83.916 181.298,83.916 185.052 M164.939 199.700 L 165.044 216.184 162.842 216.184 L 160.639 216.184 160.639 199.867 C 160.639 181.898,160.492 182.933,163.022 183.098 L 164.835 183.217 164.939 199.700 M232.872 199.700 L 232.976 216.184 230.774 216.184 C 228.838 216.184,228.571 216.087,228.571 215.385 C 228.571 214.380,228.136 214.368,227.296 215.349 C 225.683 217.232,219.172 217.059,216.795 215.070 C 213.732 212.507,212.907 210.686,212.887 206.449 C 212.848 197.767,221.690 192.632,227.872 197.747 C 228.534 198.295,228.571 197.928,228.571 190.938 C 228.571 182.647,228.483 182.937,230.954 183.098 L 232.767 183.217 232.872 199.700 M242.467 190.310 C 242.527 194.211,242.712 197.403,242.877 197.403 C 243.043 197.403,243.623 197.089,244.167 196.706 C 245.581 195.709,249.528 195.768,251.276 196.811 C 254.049 198.465,254.329 199.468,254.488 208.314 L 254.630 216.229 252.490 216.106 L 250.350 215.984 250.108 209.191 C 249.804 200.651,249.304 199.670,245.616 200.362 C 242.999 200.853,242.781 201.478,242.557 209.131 L 242.358 215.984 240.260 216.105 L 238.162 216.226 238.162 199.888 C 238.162 181.896,238.015 182.933,240.545 183.098 L 242.358 183.217 242.467 190.310 M72.328 197.942 C 72.328 203.715,74.383 206.479,79.187 207.165 L 81.051 207.431 84.682 204.117 L 88.312 200.803 88.312 197.305 C 88.312 193.921,88.282 193.806,87.393 193.806 C 86.589 193.806,86.493 193.971,86.628 195.125 C 86.815 196.725,85.549 197.574,84.007 196.881 C 83.067 196.459,82.446 194.967,82.903 194.229 C 83.078 193.946,82.160 193.806,80.129 193.806 C 77.178 193.806,77.107 193.829,77.540 194.639 C 77.897 195.305,77.844 195.628,77.275 196.256 C 75.786 197.902,72.698 196.423,73.832 194.607 C 74.283 193.886,74.233 193.806,73.330 193.806 L 72.328 193.806 72.328 197.942 M154.399 197.108 L 156.044 198.014 156.162 200.705 C 156.288 203.564,156.029 203.915,154.807 202.541 C 150.605 197.817,143.092 200.674,143.565 206.816 C 144.006 212.544,150.865 214.587,154.854 210.180 C 155.998 208.916,156.244 209.230,156.244 211.955 C 156.244 217.445,146.896 218.798,142.101 214.002 C 133.554 205.455,143.856 191.303,154.399 197.108 M183.869 197.123 C 189.473 200.105,190.929 208.144,186.788 213.233 C 183.822 216.877,176.554 217.975,173.167 215.290 C 162.686 206.982,172.163 190.893,183.869 197.123 M271.954 197.019 C 274.817 198.789,274.925 199.192,274.925 208.154 L 274.925 216.184 272.727 216.184 C 270.966 216.184,270.529 216.055,270.529 215.535 C 270.529 215.032,270.407 214.988,269.981 215.342 C 264.178 220.159,253.960 212.409,258.650 206.748 C 261.155 203.724,264.756 202.809,269.431 204.007 C 270.478 204.276,270.529 204.221,270.529 202.853 C 270.529 200.051,266.612 199.123,262.725 201.005 C 261.720 201.492,260.849 201.824,260.789 201.744 C 258.532 198.716,258.599 198.249,261.456 197.093 C 265.239 195.561,269.546 195.531,271.954 197.019 M309.890 196.888 C 312.922 198.410,314.479 201.328,314.483 205.495 L 314.486 207.792 307.293 207.792 C 298.995 207.792,298.558 208.048,301.715 211.051 C 304.288 213.498,307.384 213.140,310.136 210.076 L 311.180 208.912 312.833 209.956 C 314.910 211.267,314.900 211.704,312.745 213.690 C 305.454 220.411,295.533 216.205,295.529 206.394 C 295.526 198.230,302.874 193.366,309.890 196.888 M331.984 197.293 C 334.356 199.218,334.864 201.335,334.865 209.291 L 334.865 216.184 332.667 216.184 L 330.470 216.184 330.470 209.360 L 330.470 202.536 329.251 201.318 C 327.729 199.795,325.389 199.905,323.715 201.577 C 322.692 202.600,322.675 202.707,322.544 209.399 L 322.410 216.184 320.239 216.184 L 318.068 216.184 318.175 206.294 L 318.282 196.404 320.211 196.281 C 321.887 196.174,322.169 196.267,322.359 196.993 C 322.568 197.792,322.622 197.800,323.592 197.164 C 326.197 195.457,329.790 195.512,331.984 197.293 M196.913 203.172 C 197.019 209.713,197.057 209.985,198.032 211.264 C 199.314 212.944,201.367 213.088,203.197 211.625 L 204.396 210.667 204.595 203.535 L 204.795 196.404 206.993 196.404 L 209.191 196.404 209.191 206.194 L 209.191 215.984 207.206 216.109 C 205.753 216.201,205.098 216.066,204.761 215.605 C 204.365 215.064,204.235 215.056,203.829 215.545 C 202.871 216.699,199.632 217.124,197.411 216.386 C 193.463 215.075,192.632 212.781,192.617 203.164 C 192.606 195.914,192.533 196.125,194.990 196.285 L 196.803 196.404 196.913 203.172 M281.418 197.502 C 281.743 198.217,282.417 199.880,282.916 201.199 C 283.415 202.517,283.971 203.956,284.151 204.396 C 284.332 204.835,284.761 205.899,285.104 206.760 C 285.742 208.357,286.834 208.016,286.914 206.194 C 286.928 205.864,287.288 204.875,287.712 203.996 C 288.137 203.117,288.490 202.245,288.498 202.058 C 288.505 201.872,288.770 201.153,289.086 200.460 C 289.402 199.767,289.932 198.526,290.264 197.702 C 290.846 196.260,290.941 196.204,292.807 196.204 C 294.968 196.204,295.843 196.749,295.292 197.754 C 294.469 199.254,292.907 202.909,292.907 203.335 C 292.907 203.589,292.727 203.796,292.507 203.796 C 292.288 203.796,292.108 204.035,292.108 204.327 C 292.108 204.777,289.467 210.964,287.005 216.279 C 285.913 218.639,285.618 218.435,283.696 213.986 C 282.349 210.869,281.879 209.815,280.348 206.485 C 279.563 204.777,278.921 203.285,278.921 203.170 C 278.921 203.054,278.288 201.608,277.515 199.956 C 275.854 196.410,275.919 196.204,278.699 196.204 C 280.713 196.204,280.860 196.274,281.418 197.502 M69.623 197.802 C 69.623 198.571,69.705 198.886,69.806 198.501 C 69.906 198.117,69.906 197.488,69.806 197.103 C 69.705 196.718,69.623 197.033,69.623 197.802 M76.546 200.109 C 77.831 204.083,82.431 203.957,84.130 199.900 C 84.957 197.928,86.449 198.525,86.039 200.664 C 84.876 206.718,74.326 205.782,74.326 199.625 C 74.326 197.994,75.979 198.354,76.546 200.109 M303.497 200.282 C 298.636 201.981,299.377 203.796,304.933 203.796 C 310.155 203.796,310.823 203.398,308.791 201.495 C 307.122 199.932,305.538 199.569,303.497 200.282 M176.232 200.900 C 171.993 203.030,171.893 209.298,176.060 211.756 C 179.936 214.043,184.615 211.021,184.615 206.230 C 184.615 202.970,181.955 200.201,178.821 200.201 C 178.162 200.201,176.997 200.515,176.232 200.900 M220.896 200.595 C 218.393 201.349,217.174 203.673,217.461 207.139 C 218.099 214.828,228.373 214.135,228.371 206.403 C 228.370 201.875,225.094 199.329,220.896 200.595 M86.753 205.066 C 84.313 207.303,82.318 209.450,82.318 209.838 C 82.318 211.229,83.225 211.054,85.053 209.309 C 91.603 203.061,93.758 202.589,97.846 206.509 C 102.049 210.539,103.896 211.613,103.896 210.027 C 103.896 209.446,96.593 202.198,96.007 202.198 C 95.778 202.198,95.486 201.928,95.360 201.598 C 94.567 199.532,91.393 200.810,86.753 205.066 M91.933 206.263 C 91.399 206.460,90.381 207.221,89.670 207.952 C 88.959 208.684,87.509 209.982,86.447 210.835 C 83.831 212.938,83.929 212.695,83.922 217.083 L 83.916 220.979 86.114 220.979 L 88.312 220.979 88.312 218.015 C 88.312 213.597,88.095 213.786,93.150 213.786 L 97.502 213.786 97.502 216.184 C 97.502 218.475,97.458 218.581,96.503 218.581 C 95.628 218.581,95.504 218.408,95.504 217.183 L 95.504 215.784 93.107 215.784 L 90.709 215.784 90.709 218.382 L 90.709 220.979 93.060 220.979 C 95.075 220.979,95.441 220.865,95.620 220.180 C 95.735 219.740,96.133 219.381,96.503 219.381 C 96.874 219.381,97.272 219.740,97.387 220.180 C 97.563 220.854,97.932 220.979,99.747 220.979 L 101.898 220.979 101.898 216.803 C 101.898 213.560,101.768 212.554,101.316 212.301 C 100.995 212.122,99.756 211.034,98.562 209.884 C 95.950 207.368,95.929 207.364,96.012 209.437 C 96.176 213.550,90.720 214.224,90.062 210.171 C 89.654 207.655,91.866 206.202,94.655 207.154 C 95.268 207.363,95.516 207.335,95.355 207.075 C 94.907 206.350,92.952 205.886,91.933 206.263 M263.387 208.068 C 261.223 209.827,262.766 212.721,265.868 212.721 C 268.551 212.721,271.790 209.319,270.416 207.945 C 269.709 207.238,264.291 207.333,263.387 208.068 M77.648 209.688 C 78.688 210.866,79.920 211.118,79.920 210.152 C 79.920 209.733,79.695 209.388,79.421 209.385 C 79.146 209.382,78.472 209.264,77.922 209.123 C 76.942 208.870,76.937 208.881,77.648 209.688 M92.097 209.408 C 91.730 210.002,92.656 210.984,93.336 210.723 C 94.212 210.387,94.046 208.991,93.130 208.991 C 92.704 208.991,92.239 209.179,92.097 209.408 M73.806 210.989 C 72.869 213.277,71.928 216.787,71.928 217.996 C 71.928 218.786,71.742 219.781,71.514 220.206 C 71.118 220.946,71.270 220.979,75.111 220.979 L 79.121 220.979 79.121 219.571 C 79.121 218.417,78.930 218.090,78.070 217.762 C 75.780 216.892,74.728 215.804,74.678 214.259 C 74.609 212.121,74.110 210.248,73.806 210.989 M69.730 211.460 C 68.162 212.335,66.751 214.006,66.500 215.285 C 66.360 215.999,66.085 216.583,65.890 216.583 C 65.694 216.583,65.527 216.898,65.517 217.283 C 65.507 217.667,65.259 218.656,64.965 219.481 L 64.430 220.979 66.753 220.979 C 69.371 220.979,69.259 221.116,69.882 217.149 C 70.092 215.811,70.549 214.036,70.896 213.204 C 71.865 210.886,71.563 210.436,69.730 211.460 M76.723 213.177 C 76.723 214.439,77.800 215.784,78.810 215.784 C 79.318 215.784,79.163 213.371,78.621 212.836 C 77.402 211.631,76.723 211.753,76.723 213.177 M81.119 214.386 C 81.119 215.155,81.299 215.784,81.518 215.784 C 81.738 215.784,81.918 215.155,81.918 214.386 C 81.918 213.616,81.738 212.987,81.518 212.987 C 81.299 212.987,81.119 213.616,81.119 214.386 M81.361 218.414 C 80.981 219.406,81.077 220.979,81.518 220.979 C 81.738 220.979,81.918 220.260,81.918 219.381 C 81.918 217.677,81.754 217.392,81.361 218.414 " stroke="none" fill="#f4bc44" fill-rule="evenodd"></path><path id="path1" d="M0.000 199.800 L 0.000 399.600 200.000 399.600 L 400.000 399.600 400.000 199.800 L 400.000 0.000 200.000 0.000 L 0.000 0.000 0.000 199.800 M397.602 199.800 L 397.602 397.602 200.000 397.602 L 2.398 397.602 2.398 199.800 L 2.398 1.998 200.000 1.998 L 397.602 1.998 397.602 199.800 M121.079 199.800 C 121.079 237.496,121.085 237.762,121.878 237.762 C 122.672 237.762,122.677 237.496,122.677 199.800 C 122.677 162.105,122.672 161.838,121.878 161.838 C 121.085 161.838,121.079 162.105,121.079 199.800 M75.279 179.575 C 73.138 180.676,69.930 183.325,69.930 183.994 C 69.930 184.282,69.682 184.723,69.379 184.975 C 69.076 185.227,68.713 186.013,68.572 186.722 C 68.432 187.432,67.792 188.745,67.151 189.640 L 65.986 191.268 66.756 192.437 C 67.315 193.284,67.528 194.312,67.530 196.166 C 67.532 198.625,67.594 198.784,69.111 200.227 C 69.979 201.052,70.956 202.367,71.283 203.149 C 71.609 203.930,72.739 205.373,73.794 206.355 L 75.711 208.141 74.719 208.511 C 74.173 208.715,72.895 209.004,71.880 209.153 C 67.746 209.760,65.750 211.942,63.705 218.094 C 62.032 223.124,59.665 222.577,83.117 222.577 L 103.497 222.577 103.497 217.628 C 103.497 212.790,103.519 212.665,104.496 212.025 C 107.473 210.074,99.771 201.195,93.407 199.241 C 92.330 198.910,92.408 194.113,93.513 192.708 C 94.357 191.635,94.258 190.374,93.269 189.612 C 92.983 189.391,92.354 188.142,91.871 186.837 C 89.457 180.300,81.037 176.615,75.279 179.575 M82.230 184.515 L 82.118 189.211 80.120 189.211 L 78.122 189.211 78.007 185.042 C 77.862 179.776,77.843 179.820,80.320 179.820 L 82.343 179.820 82.230 184.515 M76.637 184.915 L 76.523 189.211 74.825 189.334 C 73.891 189.401,73.127 189.626,73.127 189.833 C 73.127 190.059,77.060 190.210,82.930 190.210 C 92.910 190.210,94.755 190.519,92.666 191.842 C 91.643 192.490,68.104 192.297,67.556 191.636 C 66.929 190.881,68.127 190.210,70.104 190.210 C 70.887 190.210,71.528 190.030,71.528 189.810 C 71.528 189.590,71.090 189.411,70.553 189.411 C 67.685 189.411,70.407 184.127,74.725 181.312 C 76.647 180.060,76.759 180.273,76.637 184.915 M84.915 181.019 C 85.051 181.239,85.494 181.419,85.901 181.419 C 87.746 181.419,92.437 188.680,90.958 189.247 C 90.675 189.356,88.929 189.392,87.079 189.328 L 83.716 189.211 83.600 185.445 C 83.463 180.984,83.928 179.421,84.915 181.019 M161.324 183.664 C 161.167 183.821,161.039 191.112,161.039 199.867 L 161.039 215.784 162.842 215.784 L 164.644 215.784 164.540 199.700 L 164.436 183.616 163.023 183.497 C 162.246 183.432,161.481 183.507,161.324 183.664 M229.256 183.664 C 229.099 183.821,228.971 187.246,228.971 191.275 C 228.971 198.919,228.922 199.106,227.255 197.795 C 220.259 192.292,210.244 201.915,213.896 210.631 C 216.128 215.959,224.212 218.299,227.569 214.589 C 228.540 213.517,228.971 213.577,228.971 214.785 C 228.971 215.703,229.117 215.784,230.774 215.784 L 232.576 215.784 232.472 199.700 L 232.368 183.616 230.955 183.497 C 230.178 183.432,229.413 183.507,229.256 183.664 M238.561 199.577 L 238.561 215.784 240.360 215.784 L 242.158 215.784 242.158 209.032 L 242.158 202.281 243.570 201.040 C 245.384 199.448,247.573 199.341,249.228 200.764 L 250.350 201.728 250.489 208.756 L 250.629 215.784 252.387 215.784 L 254.146 215.784 254.146 209.610 C 254.146 202.615,253.704 199.887,252.303 198.221 C 250.488 196.065,245.923 195.841,243.301 197.780 L 242.176 198.612 242.067 191.114 L 241.958 183.616 240.260 183.494 L 238.561 183.371 238.561 199.577 M70.330 193.861 C 70.330 194.315,69.184 194.792,68.864 194.472 C 68.737 194.345,68.738 193.966,68.867 193.630 C 69.109 192.999,70.330 193.192,70.330 193.861 M74.725 193.412 C 74.725 193.635,74.511 194.160,74.250 194.578 C 73.875 195.178,73.889 195.478,74.315 195.991 C 75.504 197.424,77.806 195.791,76.820 194.213 C 76.068 193.008,76.072 193.007,79.896 193.007 C 83.616 193.007,84.232 193.269,83.541 194.560 C 82.890 195.776,84.259 197.275,85.441 196.643 C 86.390 196.135,86.608 194.660,85.847 193.899 C 85.244 193.296,86.186 192.895,87.778 193.077 L 88.911 193.207 88.904 196.938 L 88.897 200.669 85.233 204.230 C 81.030 208.315,80.340 208.522,76.603 206.812 C 74.306 205.762,72.616 203.797,71.919 201.366 C 71.363 199.429,71.424 194.071,72.008 193.487 C 72.590 192.904,74.725 192.846,74.725 193.412 M91.770 193.624 C 92.092 194.464,91.734 194.731,90.718 194.408 C 90.038 194.193,89.962 194.026,90.338 193.573 C 90.949 192.836,91.475 192.855,91.770 193.624 M70.330 197.602 C 70.330 199.443,70.056 199.766,69.211 198.921 C 68.312 198.023,68.881 195.804,70.010 195.804 C 70.186 195.804,70.330 196.613,70.330 197.602 M91.408 196.590 C 91.993 197.528,91.393 199.561,90.607 199.302 C 89.730 199.014,89.724 195.804,90.601 195.804 C 90.774 195.804,91.138 196.158,91.408 196.590 M147.011 196.605 C 141.060 197.624,137.495 205.167,140.305 210.795 C 143.798 217.787,155.844 218.622,155.844 211.872 L 155.844 209.681 154.810 210.715 C 149.221 216.304,140.064 210.011,143.773 203.129 C 145.933 199.120,152.228 198.677,155.136 202.330 C 155.811 203.178,155.827 203.146,155.835 200.928 C 155.848 197.754,154.956 197.082,149.850 196.420 C 149.301 196.349,148.023 196.432,147.011 196.605 M176.823 196.589 C 166.888 198.224,166.121 212.819,175.814 215.814 C 182.589 217.907,188.692 213.442,188.692 206.394 C 188.692 199.797,183.482 195.493,176.823 196.589 M264.589 196.626 C 260.449 197.207,258.990 198.602,260.487 200.549 C 261.181 201.451,261.264 201.466,262.204 200.850 C 265.934 198.406,270.929 199.641,270.929 203.007 C 270.929 204.916,270.800 204.996,268.816 204.306 C 261.411 201.729,254.493 209.972,260.101 214.691 C 262.499 216.709,268.776 216.852,269.973 214.916 C 270.311 214.369,270.929 214.543,270.929 215.185 C 270.929 215.629,271.395 215.784,272.727 215.784 L 274.525 215.784 274.525 208.139 C 274.525 197.332,272.909 195.460,264.589 196.626 M303.121 196.649 C 293.730 198.120,293.114 212.834,302.312 215.971 C 307.705 217.811,316.574 212.801,312.397 210.275 C 311.333 209.632,311.275 209.646,309.999 210.877 C 306.940 213.828,302.512 213.646,300.560 210.488 C 298.690 207.462,298.767 207.425,306.993 207.302 L 314.286 207.193 314.236 205.166 C 314.086 199.042,309.633 195.630,303.121 196.649 M325.887 196.656 C 325.016 196.860,323.925 197.381,323.464 197.814 C 322.356 198.855,322.078 198.807,322.078 197.579 C 322.078 196.624,321.967 196.565,320.380 196.680 L 318.681 196.803 318.574 206.294 L 318.467 215.784 320.272 215.784 L 322.078 215.784 322.078 209.751 C 322.078 201.771,323.029 199.800,326.880 199.800 C 330.265 199.800,330.869 201.250,330.869 209.371 L 330.869 215.784 332.699 215.784 L 334.529 215.784 334.397 208.492 C 334.207 197.925,332.230 195.175,325.887 196.656 M193.009 203.274 C 193.010 206.968,193.200 210.669,193.431 211.499 C 194.708 216.098,200.178 217.917,203.907 214.984 C 205.176 213.985,205.395 213.985,205.395 214.985 C 205.395 215.651,205.661 215.784,206.993 215.784 L 208.591 215.784 208.591 206.194 L 208.591 196.603 206.993 196.603 L 205.395 196.603 205.355 202.697 C 205.303 210.685,204.733 212.226,201.614 212.811 C 197.653 213.554,196.861 212.096,196.607 203.596 L 196.404 196.803 194.705 196.680 L 193.007 196.557 193.009 203.274 M276.923 197.166 C 276.923 197.475,277.436 198.868,278.063 200.262 C 278.691 201.657,279.609 203.696,280.104 204.795 C 280.598 205.894,281.241 207.333,281.532 207.992 C 281.823 208.651,282.678 210.539,283.433 212.188 C 284.188 213.836,284.932 215.589,285.087 216.084 C 285.242 216.578,285.614 216.983,285.914 216.983 C 286.214 216.983,286.583 216.578,286.733 216.084 C 286.884 215.589,287.454 214.196,288.001 212.987 C 291.001 206.354,294.905 197.302,294.905 196.977 C 294.905 196.772,294.093 196.603,293.101 196.603 C 291.407 196.603,289.311 199.153,289.311 201.213 C 289.311 201.358,289.056 202.044,288.744 202.737 C 287.253 206.051,286.513 207.942,286.513 208.442 C 286.513 209.678,285.466 208.863,284.778 207.091 C 283.127 202.843,282.457 201.159,282.114 200.400 C 281.916 199.960,281.485 198.926,281.157 198.102 C 280.516 196.493,276.923 195.699,276.923 197.166 M75.039 200.596 C 75.792 205.728,85.514 205.418,85.514 200.262 C 85.514 198.978,84.801 199.221,84.176 200.718 C 82.673 204.313,75.924 203.856,75.924 200.158 C 75.924 199.742,75.685 199.401,75.394 199.401 C 75.032 199.401,74.920 199.781,75.039 200.596 M308.357 200.487 C 309.100 200.967,310.490 203.228,310.490 203.956 C 310.490 204.088,308.062 204.196,305.095 204.196 C 299.335 204.196,299.213 204.145,300.346 202.227 C 301.851 199.678,305.784 198.825,308.357 200.487 M181.666 200.449 C 185.440 202.240,186.231 207.843,183.161 211.047 C 179.291 215.087,172.627 212.146,172.627 206.398 C 172.627 201.415,177.267 198.361,181.666 200.449 M226.598 201.222 C 232.013 206.410,226.701 215.591,220.194 212.291 C 215.727 210.024,215.847 202.173,220.380 200.162 C 222.039 199.426,225.303 199.982,226.598 201.222 M96.273 201.822 C 99.619 204.246,104.340 209.084,104.214 209.961 C 103.954 211.781,102.286 211.187,98.901 208.069 C 93.264 202.876,92.733 202.888,86.786 208.350 C 84.467 210.480,83.639 211.011,82.793 210.913 C 80.357 210.631,81.550 209.010,88.873 202.649 C 91.831 200.080,93.596 199.883,96.273 201.822 M96.231 207.238 C 97.480 208.252,99.356 209.878,100.400 210.851 L 102.298 212.619 102.298 216.999 L 102.298 221.379 99.863 221.379 C 97.764 221.379,97.399 221.268,97.219 220.579 C 96.951 219.555,96.449 219.562,95.895 220.597 C 95.510 221.315,95.135 221.400,92.784 221.296 L 90.110 221.179 90.110 218.382 L 90.110 215.584 93.007 215.467 L 95.904 215.350 95.904 216.766 C 95.904 217.758,96.083 218.182,96.503 218.182 C 96.956 218.182,97.103 217.693,97.103 216.184 L 97.103 214.186 93.122 214.186 L 89.142 214.186 89.027 217.682 L 88.911 221.179 86.314 221.179 L 83.716 221.179 83.602 217.273 C 83.466 212.656,83.255 213.091,87.449 209.359 C 92.752 204.642,92.968 204.589,96.231 207.238 M91.291 207.974 C 89.652 209.612,90.812 212.587,93.089 212.587 C 95.348 212.587,96.419 208.883,94.520 207.638 C 93.166 206.751,92.437 206.827,91.291 207.974 M269.904 207.383 C 271.955 208.163,270.871 211.190,268.019 212.645 C 264.136 214.626,259.847 210.846,262.719 207.974 C 263.795 206.898,267.769 206.571,269.904 207.383 M80.200 209.137 C 80.964 209.902,80.385 211.176,79.321 211.073 C 78.111 210.956,76.723 209.736,76.723 208.789 C 76.723 208.348,79.710 208.647,80.200 209.137 M94.279 210.240 C 93.854 211.034,92.126 211.266,91.706 210.586 C 91.312 209.949,91.878 208.658,92.626 208.488 C 93.717 208.239,94.759 209.344,94.279 210.240 M75.130 212.764 C 75.139 215.398,75.448 215.925,77.548 216.891 C 79.483 217.780,79.520 217.832,79.520 219.588 L 79.520 221.379 75.269 221.379 L 71.019 221.379 71.279 218.835 C 71.511 216.576,72.996 211.372,73.763 210.130 C 74.255 209.334,75.124 211.007,75.130 212.764 M71.420 212.887 C 70.990 214.151,70.426 216.533,70.168 218.182 L 69.699 221.179 67.158 221.299 C 63.878 221.455,63.841 221.384,65.142 217.449 C 66.580 213.096,68.769 210.693,71.367 210.615 L 72.204 210.589 71.420 212.887 M77.722 211.788 C 77.858 212.008,78.318 212.188,78.745 212.188 C 79.419 212.188,79.520 212.477,79.520 214.394 L 79.520 216.600 77.922 215.784 C 76.613 215.116,76.324 214.759,76.324 213.811 C 76.324 213.174,76.215 212.368,76.081 212.021 C 75.806 211.304,77.293 211.094,77.722 211.788 M82.240 214.086 C 82.152 215.453,81.950 215.984,81.518 215.984 C 80.758 215.984,80.474 213.564,81.141 212.761 C 82.002 211.724,82.363 212.160,82.240 214.086 M82.318 219.410 C 82.318 221.125,82.210 221.417,81.618 221.305 C 80.776 221.145,80.484 219.369,81.108 218.202 C 81.849 216.818,82.318 217.286,82.318 219.410 " stroke="none" fill="#f0efee" fill-rule="evenodd"></path><path id="path2" d="M2.398 199.800 L 2.398 397.602 200.000 397.602 L 397.602 397.602 397.602 199.800 L 397.602 1.998 200.000 1.998 L 2.398 1.998 2.398 199.800 M397.003 199.800 L 397.003 396.603 200.100 396.704 L 3.197 396.804 3.197 199.800 L 3.197 2.796 200.100 2.897 L 397.003 2.997 397.003 199.800 M120.876 199.800 L 120.879 237.962 121.784 238.015 C 122.533 238.059,122.551 238.037,121.886 237.888 C 121.089 237.709,121.082 237.403,120.978 199.673 L 120.873 161.638 120.876 199.800 M83.693 185.015 L 83.716 189.211 87.276 189.327 C 89.234 189.391,90.979 189.301,91.154 189.127 C 91.329 188.953,89.778 188.868,87.708 188.938 L 83.945 189.065 83.807 184.942 L 83.670 180.819 83.693 185.015 M85.954 181.518 C 86.048 181.573,86.933 182.338,87.918 183.217 L 89.710 184.815 88.131 183.117 C 87.262 182.183,86.378 181.419,86.166 181.419 C 85.954 181.419,85.859 181.464,85.954 181.518 M238.355 199.800 L 238.362 215.984 240.063 216.023 L 241.764 216.062 240.167 215.901 L 238.570 215.739 238.459 199.678 L 238.348 183.616 238.355 199.800 M74.230 189.294 C 74.728 189.389,75.447 189.386,75.829 189.286 C 76.211 189.186,75.804 189.107,74.925 189.112 C 74.046 189.116,73.733 189.198,74.230 189.294 M79.226 189.298 C 79.834 189.390,80.733 189.387,81.224 189.292 C 81.716 189.197,81.219 189.122,80.120 189.125 C 79.021 189.128,78.619 189.206,79.226 189.298 M69.031 190.492 C 69.525 190.587,70.335 190.587,70.829 190.492 C 71.324 190.397,70.919 190.319,69.930 190.319 C 68.941 190.319,68.536 190.397,69.031 190.492 M76.723 190.489 C 85.149 190.773,93.016 190.783,92.846 190.509 C 92.744 190.345,88.310 190.247,82.993 190.292 C 77.677 190.337,74.855 190.426,76.723 190.489 M74.051 192.107 C 77.526 192.174,83.101 192.174,86.439 192.107 C 89.776 192.040,86.933 191.986,80.120 191.986 C 73.307 191.986,70.576 192.041,74.051 192.107 M93.387 192.848 C 92.838 193.582,92.702 194.354,92.812 196.106 L 92.956 198.402 93.031 196.035 C 93.081 194.478,93.334 193.419,93.770 192.936 C 94.135 192.533,94.360 192.132,94.270 192.045 C 94.180 191.958,93.782 192.319,93.387 192.848 M73.127 193.301 C 73.676 193.404,74.258 193.694,74.419 193.946 C 74.608 194.241,74.715 194.155,74.719 193.706 C 74.724 193.171,74.420 193.020,73.427 193.061 C 72.327 193.107,72.281 193.144,73.127 193.301 M76.323 193.307 C 76.322 193.472,77.957 193.548,79.955 193.477 L 83.589 193.348 83.334 194.276 C 83.115 195.071,83.142 195.104,83.519 194.502 C 83.761 194.116,83.849 193.621,83.714 193.403 C 83.432 192.947,76.324 192.854,76.323 193.307 M85.785 193.292 C 85.673 193.473,86.278 193.555,87.129 193.474 L 88.676 193.326 88.821 196.365 L 88.965 199.403 88.938 196.305 L 88.911 193.207 87.450 193.085 C 86.646 193.018,85.897 193.111,85.785 193.292 M69.142 196.390 C 68.875 196.712,68.748 197.207,68.862 197.489 C 68.994 197.819,69.079 197.760,69.099 197.323 C 69.117 196.949,69.446 196.460,69.830 196.236 C 70.215 196.012,70.327 195.823,70.079 195.816 C 69.831 195.810,69.409 196.068,69.142 196.390 M74.275 196.339 C 74.576 196.704,75.139 197.003,75.524 197.003 C 75.910 197.003,76.473 196.704,76.774 196.339 C 77.276 195.732,77.247 195.723,76.424 196.236 C 75.653 196.716,75.396 196.716,74.625 196.236 C 73.802 195.723,73.773 195.732,74.275 196.339 M90.176 196.071 C 89.743 196.504,89.873 198.931,90.345 199.222 C 90.583 199.370,90.988 199.280,91.244 199.022 C 91.598 198.665,91.542 198.617,91.009 198.820 C 90.160 199.144,89.961 196.411,90.809 196.069 C 91.088 195.956,91.117 195.853,90.876 195.836 C 90.638 195.818,90.323 195.924,90.176 196.071 M205.156 202.997 C 205.156 206.404,205.217 207.797,205.292 206.094 C 205.367 204.391,205.367 201.603,205.292 199.900 C 205.217 198.197,205.156 199.590,205.156 202.997 M208.683 206.271 L 208.591 215.738 206.893 215.891 L 205.195 216.044 206.906 216.114 C 209.124 216.205,209.026 216.704,208.891 205.985 L 208.775 196.803 208.683 206.271 M196.764 203.397 C 196.764 206.803,196.826 208.197,196.900 206.494 C 196.975 204.790,196.975 202.003,196.900 200.300 C 196.826 198.596,196.764 199.990,196.764 203.397 M155.321 198.214 C 155.582 198.550,155.864 199.809,155.946 201.011 L 156.096 203.197 156.170 200.948 C 156.227 199.221,156.082 198.572,155.544 198.151 C 154.932 197.671,154.904 197.679,155.321 198.214 M84.500 204.695 L 82.517 206.793 84.615 204.810 C 85.769 203.720,86.713 202.776,86.713 202.712 C 86.713 202.414,86.343 202.746,84.500 204.695 M330.632 208.991 C 330.632 212.617,330.693 214.101,330.767 212.288 C 330.841 210.475,330.841 207.507,330.767 205.694 C 330.693 203.881,330.632 205.365,330.632 208.991 M213.096 204.995 C 213.096 205.984,213.174 206.389,213.269 205.894 C 213.364 205.400,213.364 204.590,213.269 204.096 C 213.174 203.601,213.096 204.006,213.096 204.995 M100.699 205.994 C 101.893 207.203,102.960 208.192,103.070 208.192 C 103.179 208.192,102.293 207.203,101.099 205.994 C 99.905 204.785,98.838 203.796,98.729 203.796 C 98.619 203.796,99.506 204.785,100.699 205.994 M103.497 206.793 C 104.242 207.562,104.942 208.192,105.052 208.192 C 105.162 208.192,104.642 207.562,103.896 206.793 C 103.151 206.024,102.451 205.395,102.341 205.395 C 102.231 205.395,102.751 206.024,103.497 206.793 M73.127 205.919 C 73.127 205.988,73.711 206.572,74.426 207.218 L 75.724 208.392 74.551 207.093 C 73.457 205.882,73.127 205.611,73.127 205.919 M85.493 209.291 L 84.116 210.789 85.614 209.412 C 87.009 208.130,87.297 207.792,86.991 207.792 C 86.925 207.792,86.250 208.467,85.493 209.291 M99.484 210.290 C 100.464 211.334,101.318 212.188,101.382 212.188 C 101.682 212.188,101.365 211.829,99.600 210.173 L 97.702 208.392 99.484 210.290 M155.916 212.008 C 155.877 213.118,155.665 214.242,155.446 214.507 C 155.227 214.771,155.328 214.745,155.670 214.448 C 156.122 214.057,156.251 213.371,156.140 211.949 L 155.988 209.990 155.916 212.008 M148.551 212.869 C 149.046 212.965,149.855 212.965,150.350 212.869 C 150.844 212.774,150.440 212.696,149.451 212.696 C 148.462 212.696,148.057 212.774,148.551 212.869 M178.127 212.870 C 178.624 212.966,179.343 212.962,179.725 212.862 C 180.107 212.762,179.700 212.684,178.821 212.688 C 177.942 212.693,177.629 212.774,178.127 212.870 M199.900 212.863 C 200.285 212.963,200.914 212.963,201.299 212.863 C 201.683 212.762,201.369 212.680,200.599 212.680 C 199.830 212.680,199.515 212.762,199.900 212.863 M222.083 212.870 C 222.580 212.966,223.299 212.962,223.681 212.862 C 224.063 212.762,223.656 212.684,222.777 212.688 C 221.898 212.693,221.586 212.774,222.083 212.870 M304.396 212.869 C 304.890 212.965,305.699 212.965,306.194 212.869 C 306.688 212.774,306.284 212.696,305.295 212.696 C 304.306 212.696,303.901 212.774,304.396 212.869 M80.820 214.386 C 80.824 215.265,80.906 215.577,81.002 215.080 C 81.097 214.583,81.094 213.864,80.994 213.482 C 80.894 213.100,80.816 213.506,80.820 214.386 M83.693 216.983 L 83.716 221.179 86.314 221.179 L 88.911 221.179 88.935 217.982 L 88.960 214.785 88.819 217.882 L 88.679 220.979 86.312 220.979 L 83.944 220.979 83.807 216.883 L 83.670 212.787 83.693 216.983 M97.217 216.384 C 97.220 217.483,97.298 217.885,97.390 217.277 C 97.481 216.670,97.479 215.771,97.384 215.279 C 97.289 214.788,97.214 215.285,97.217 216.384 M90.083 218.581 L 90.110 221.179 92.707 221.206 L 95.305 221.233 92.825 221.088 L 90.345 220.943 90.200 218.464 L 90.055 215.984 90.083 218.581 M162.143 216.067 C 162.640 216.162,163.359 216.159,163.741 216.059 C 164.123 215.959,163.716 215.881,162.837 215.885 C 161.958 215.889,161.645 215.971,162.143 216.067 M229.876 216.071 C 230.483 216.163,231.382 216.160,231.874 216.066 C 232.365 215.971,231.868 215.896,230.769 215.899 C 229.670 215.902,229.268 215.979,229.876 216.071 M251.653 216.067 C 252.150 216.162,252.869 216.159,253.251 216.059 C 253.633 215.959,253.227 215.881,252.348 215.885 C 251.469 215.889,251.156 215.971,251.653 216.067 M272.028 216.066 C 272.522 216.161,273.332 216.161,273.826 216.066 C 274.321 215.971,273.916 215.893,272.927 215.893 C 271.938 215.893,271.533 215.971,272.028 216.066 M319.580 216.066 C 320.075 216.161,320.884 216.161,321.379 216.066 C 321.873 215.971,321.469 215.893,320.480 215.893 C 319.491 215.893,319.086 215.971,319.580 216.066 M331.774 216.071 C 332.381 216.163,333.280 216.160,333.772 216.066 C 334.263 215.971,333.766 215.896,332.667 215.899 C 331.568 215.902,331.166 215.979,331.774 216.071 M80.819 219.877 C 80.889 220.783,81.132 221.191,81.626 221.235 C 82.076 221.275,82.121 221.230,81.750 221.113 C 81.429 221.012,81.065 220.401,80.943 219.755 C 80.730 218.635,80.724 218.641,80.819 219.877 M97.204 220.579 C 97.325 221.028,98.011 221.188,99.932 221.214 L 102.498 221.249 100.109 221.091 C 98.796 221.005,97.569 220.719,97.382 220.457 C 97.144 220.123,97.091 220.160,97.204 220.579 M64.198 221.079 C 64.299 221.244,65.530 221.379,66.933 221.379 C 68.336 221.379,69.567 221.244,69.669 221.079 C 69.770 220.914,68.539 220.779,66.933 220.779 C 65.327 220.779,64.096 220.914,64.198 221.079 M73.241 221.275 C 74.513 221.354,76.491 221.354,77.637 221.273 C 78.783 221.193,77.742 221.128,75.325 221.128 C 72.907 221.129,71.970 221.195,73.241 221.275 " stroke="none" fill="#e7d5ab" fill-rule="evenodd"></path><path id="path3" d="M121.776 161.700 L 122.673 161.893 122.778 199.928 L 122.883 237.962 122.880 199.800 L 122.877 161.638 121.878 161.573 C 121.002 161.515,120.989 161.531,121.776 161.700 M75.724 179.048 C 75.065 179.470,74.710 179.817,74.936 179.818 C 75.162 179.819,75.720 179.558,76.177 179.239 C 76.679 178.887,78.253 178.603,80.162 178.520 L 83.317 178.383 80.120 178.331 C 77.588 178.291,76.674 178.440,75.724 179.048 M78.095 180.347 C 77.983 180.636,77.951 182.749,78.023 185.042 L 78.153 189.211 78.237 184.737 L 78.322 180.264 80.220 180.114 L 82.118 179.964 80.207 179.892 C 78.940 179.844,78.229 179.998,78.095 180.347 M76.321 184.933 L 76.519 189.211 76.636 185.250 C 76.701 183.072,76.612 181.147,76.439 180.973 C 76.266 180.798,76.213 182.581,76.321 184.933 M162.143 183.300 C 162.640 183.395,163.359 183.392,163.741 183.292 C 164.123 183.192,163.716 183.113,162.837 183.118 C 161.958 183.122,161.645 183.204,162.143 183.300 M230.075 183.300 C 230.572 183.395,231.291 183.392,231.673 183.292 C 232.055 183.192,231.648 183.113,230.769 183.118 C 229.890 183.122,229.578 183.204,230.075 183.300 M239.665 183.300 C 240.162 183.395,240.881 183.392,241.263 183.292 C 241.645 183.192,241.239 183.113,240.360 183.118 C 239.481 183.122,239.168 183.204,239.665 183.300 M232.750 199.600 C 232.750 208.611,232.802 212.355,232.867 207.919 C 232.931 203.483,232.931 196.110,232.867 191.535 C 232.803 186.960,232.750 190.589,232.750 199.600 M160.728 199.677 C 160.679 208.510,160.774 215.821,160.939 215.923 C 161.212 216.092,161.206 204.182,160.926 189.411 C 160.866 186.224,160.776 190.844,160.728 199.677 M164.635 199.880 C 164.525 208.826,164.573 216.007,164.740 215.840 C 164.907 215.672,164.997 208.353,164.939 199.576 L 164.835 183.616 164.635 199.880 M228.738 191.209 C 228.738 195.385,228.798 197.039,228.870 194.884 C 228.942 192.730,228.941 189.313,228.869 187.292 C 228.797 185.270,228.738 187.033,228.738 191.209 M73.452 190.695 C 73.609 190.852,78.087 191.032,83.403 191.095 C 88.719 191.157,92.939 191.080,92.782 190.923 C 92.625 190.766,88.147 190.587,82.831 190.524 C 77.515 190.461,73.294 190.538,73.452 190.695 M68.837 190.896 C 69.444 190.988,70.343 190.986,70.835 190.891 C 71.326 190.796,70.829 190.721,69.730 190.724 C 68.631 190.727,68.229 190.804,68.837 190.896 M71.697 193.943 C 71.584 194.239,71.554 195.812,71.630 197.440 L 71.769 200.400 71.849 197.128 L 71.928 193.857 73.227 193.696 L 74.525 193.534 73.214 193.471 C 72.435 193.433,71.819 193.625,71.697 193.943 M76.723 193.706 C 76.722 193.871,77.846 193.956,79.220 193.894 C 83.467 193.704,83.876 193.529,80.220 193.466 C 78.297 193.434,76.723 193.541,76.723 193.706 M85.914 193.783 C 85.914 193.989,86.122 194.287,86.375 194.444 C 86.651 194.614,86.729 194.554,86.568 194.293 C 86.400 194.022,86.792 193.797,87.605 193.696 C 88.900 193.536,88.899 193.534,87.413 193.471 C 86.588 193.435,85.914 193.576,85.914 193.783 M90.401 193.881 C 90.488 194.142,90.818 194.426,91.134 194.511 C 91.609 194.639,91.614 194.600,91.164 194.285 C 90.704 193.962,90.704 193.869,91.164 193.686 C 91.530 193.541,91.469 193.459,90.976 193.438 C 90.573 193.421,90.314 193.620,90.401 193.881 M67.253 195.804 C 67.253 197.013,67.328 197.507,67.419 196.903 C 67.511 196.299,67.511 195.310,67.419 194.705 C 67.328 194.101,67.253 194.595,67.253 195.804 M69.397 196.470 C 69.251 196.617,69.134 196.931,69.137 197.169 C 69.140 197.408,69.317 197.333,69.530 197.003 C 69.821 196.554,69.916 196.755,69.911 197.802 C 69.905 199.118,69.870 199.155,69.318 198.425 C 68.995 197.999,68.731 197.842,68.731 198.076 C 68.731 198.659,69.741 199.456,70.067 199.131 C 70.211 198.986,70.330 198.268,70.330 197.536 C 70.330 196.272,69.987 195.881,69.397 196.470 M145.699 196.531 C 145.588 196.711,146.027 196.781,146.674 196.686 C 147.322 196.590,147.852 196.443,147.852 196.358 C 147.852 196.054,145.897 196.211,145.699 196.531 M175.269 196.531 C 175.158 196.711,175.597 196.781,176.245 196.686 C 176.893 196.590,177.423 196.443,177.423 196.358 C 177.423 196.054,175.467 196.211,175.269 196.531 M180.220 196.358 C 180.220 196.443,180.750 196.590,181.397 196.686 C 182.045 196.781,182.484 196.711,182.373 196.531 C 182.175 196.211,180.220 196.054,180.220 196.358 M193.706 196.486 C 194.201 196.581,195.010 196.581,195.504 196.486 C 195.999 196.391,195.594 196.313,194.605 196.313 C 193.616 196.313,193.212 196.391,193.706 196.486 M205.257 196.503 C 205.155 196.668,205.936 196.803,206.993 196.803 C 208.050 196.803,208.831 196.668,208.729 196.503 C 208.628 196.339,207.846 196.204,206.993 196.204 C 206.140 196.204,205.358 196.339,205.257 196.503 M276.775 196.520 C 276.667 196.694,277.241 196.773,278.050 196.697 C 280.521 196.463,280.812 196.299,278.845 196.250 C 277.814 196.225,276.882 196.346,276.775 196.520 M292.901 196.488 C 293.886 196.582,294.844 196.871,295.029 197.130 C 295.262 197.457,295.316 197.417,295.204 197.003 C 295.090 196.581,294.459 196.391,293.076 196.361 L 291.109 196.318 292.901 196.488 M320.477 196.487 C 321.721 196.613,322.078 196.817,322.078 197.402 C 322.078 198.555,322.689 198.678,323.523 197.693 L 324.276 196.803 323.409 197.535 C 322.559 198.253,322.539 198.249,322.410 197.336 C 322.296 196.534,322.041 196.398,320.576 196.364 L 318.875 196.325 320.477 196.487 M318.164 206.270 C 318.119 211.477,318.217 215.821,318.382 215.923 C 318.546 216.025,318.635 213.294,318.578 209.853 C 318.383 198.010,318.246 196.825,318.164 206.270 M274.525 207.911 L 274.724 215.984 274.833 208.221 C 274.894 203.951,274.804 200.318,274.634 200.148 C 274.465 199.978,274.415 203.471,274.525 207.911 M96.703 200.325 C 96.703 200.394,97.288 200.978,98.002 201.624 L 99.301 202.797 98.127 201.499 C 97.033 200.288,96.703 200.016,96.703 200.325 M88.493 203.097 L 86.913 204.795 88.611 203.216 C 90.191 201.747,90.493 201.399,90.191 201.399 C 90.126 201.399,89.361 202.163,88.493 203.097 M270.630 203.197 C 270.635 204.076,270.717 204.389,270.812 203.891 C 270.908 203.394,270.904 202.675,270.804 202.293 C 270.704 201.911,270.626 202.318,270.630 203.197 M99.301 204.995 C 100.827 206.533,102.166 207.792,102.276 207.792 C 102.386 207.792,101.227 206.533,99.700 204.995 C 98.174 203.457,96.835 202.198,96.725 202.198 C 96.615 202.198,97.774 203.457,99.301 204.995 M254.145 209.472 C 254.035 213.143,254.086 216.006,254.256 215.835 C 254.427 215.664,254.516 212.660,254.455 209.160 L 254.343 202.797 254.145 209.472 M139.121 206.270 C 139.088 207.960,139.196 209.427,139.361 209.530 C 139.525 209.632,139.610 208.699,139.547 207.455 C 139.352 203.553,139.183 203.082,139.121 206.270 M334.625 209.590 C 334.626 212.887,334.688 214.183,334.763 212.469 C 334.838 210.756,334.838 208.059,334.762 206.475 C 334.686 204.892,334.625 206.294,334.625 209.590 M94.705 204.273 C 97.261 206.650,98.773 207.825,97.502 206.447 C 96.733 205.612,95.744 204.740,95.305 204.508 C 94.865 204.277,94.595 204.171,94.705 204.273 M168.755 206.394 C 168.757 207.712,168.832 208.204,168.921 207.485 C 169.010 206.767,169.008 205.688,168.917 205.088 C 168.826 204.487,168.753 205.075,168.755 206.394 M250.309 209.790 C 250.309 212.977,250.371 214.281,250.447 212.687 C 250.522 211.094,250.522 208.487,250.447 206.893 C 250.371 205.300,250.309 206.603,250.309 209.790 M322.238 209.990 C 322.238 213.287,322.300 214.582,322.375 212.869 C 322.450 211.156,322.450 208.458,322.374 206.875 C 322.299 205.291,322.237 206.693,322.238 209.990 M143.171 206.394 C 143.174 207.493,143.252 207.895,143.344 207.287 C 143.436 206.680,143.433 205.781,143.338 205.289 C 143.243 204.798,143.168 205.295,143.171 206.394 M172.720 206.194 C 172.720 206.963,172.802 207.278,172.903 206.893 C 173.003 206.508,173.003 205.879,172.903 205.495 C 172.802 205.110,172.720 205.425,172.720 206.194 M228.672 206.394 C 228.677 207.273,228.758 207.585,228.854 207.088 C 228.950 206.591,228.946 205.872,228.846 205.490 C 228.746 205.108,228.668 205.514,228.672 206.394 M295.405 206.394 C 295.410 207.273,295.492 207.585,295.587 207.088 C 295.683 206.591,295.679 205.872,295.579 205.490 C 295.479 205.108,295.401 205.514,295.405 206.394 M91.685 206.016 C 90.922 206.628,90.922 206.632,91.708 206.270 C 92.148 206.068,92.777 205.802,93.107 205.680 C 93.625 205.488,93.621 205.453,93.083 205.426 C 92.741 205.409,92.111 205.674,91.685 206.016 M89.089 208.092 L 87.712 209.590 89.211 208.213 C 90.606 206.932,90.893 206.593,90.588 206.593 C 90.521 206.593,89.847 207.268,89.089 208.092 M299.838 208.009 C 299.708 208.348,299.714 208.738,299.851 208.875 C 299.988 209.012,300.100 208.829,300.100 208.467 C 300.100 207.886,300.941 207.797,307.393 207.692 L 314.685 207.573 307.380 207.483 C 301.109 207.405,300.041 207.480,299.838 208.009 M98.701 209.990 C 99.895 211.199,100.962 212.188,101.072 212.188 C 101.181 212.188,100.295 211.199,99.101 209.990 C 97.907 208.781,96.840 207.792,96.731 207.792 C 96.621 207.792,97.508 208.781,98.701 209.990 M79.196 209.238 C 79.567 209.349,79.962 209.743,80.072 210.114 C 80.218 210.604,80.251 210.571,80.192 209.995 C 80.144 209.529,79.782 209.166,79.316 209.118 C 78.740 209.059,78.707 209.092,79.196 209.238 M257.835 210.190 C 257.835 210.959,257.917 211.274,258.018 210.889 C 258.118 210.504,258.118 209.875,258.018 209.491 C 257.917 209.106,257.835 209.421,257.835 210.190 M154.615 210.490 L 153.646 211.588 154.675 210.686 C 155.241 210.189,155.854 209.919,156.038 210.086 C 156.222 210.253,156.243 210.165,156.084 209.890 C 155.706 209.233,155.733 209.222,154.615 210.490 M67.707 212.687 L 66.533 213.986 67.832 212.812 C 69.043 211.718,69.315 211.389,69.006 211.389 C 68.937 211.389,68.353 211.973,67.707 212.687 M103.763 212.454 C 103.616 212.601,103.497 214.937,103.497 217.645 L 103.497 222.570 83.017 222.679 L 62.537 222.788 83.117 222.783 L 103.696 222.777 103.896 217.482 C 104.006 214.569,104.081 212.187,104.063 212.187 C 104.044 212.187,103.909 212.308,103.763 212.454 M74.818 213.786 C 74.818 214.555,74.900 214.870,75.001 214.486 C 75.101 214.101,75.101 213.472,75.001 213.087 C 74.900 212.702,74.818 213.017,74.818 213.786 M88.973 214.086 C 88.871 214.251,90.731 214.386,93.107 214.386 C 95.483 214.386,97.343 214.251,97.241 214.086 C 97.139 213.921,95.279 213.786,93.107 213.786 C 90.935 213.786,89.075 213.921,88.973 214.086 M92.983 215.675 C 95.321 215.812,95.465 215.879,95.618 216.901 C 95.765 217.887,95.776 217.877,95.742 216.783 L 95.704 215.584 93.107 215.557 L 90.509 215.530 92.983 215.675 " stroke="none" fill="#fccf7e" fill-rule="evenodd"></path><path id="path4" d="M3.296 199.900 L 3.396 397.003 3.497 200.099 L 3.597 3.196 200.100 3.296 L 396.603 3.397 396.603 200.080 C 396.603 308.256,396.738 396.628,396.904 396.463 C 397.069 396.298,397.158 307.701,397.103 199.580 L 397.003 2.997 200.100 2.897 L 3.197 2.796 3.296 199.900 M82.069 184.615 C 82.069 187.143,82.134 188.177,82.213 186.913 C 82.293 185.649,82.293 183.581,82.213 182.318 C 82.134 181.054,82.069 182.088,82.069 184.615 M85.954 181.918 C 86.048 181.973,86.933 182.737,87.918 183.616 L 89.710 185.215 88.131 183.516 C 87.262 182.582,86.378 181.818,86.166 181.818 C 85.954 181.818,85.859 181.863,85.954 181.918 M242.075 190.429 C 242.139 194.484,242.319 197.802,242.475 197.803 C 242.840 197.803,242.611 183.710,242.239 183.337 C 242.085 183.182,242.011 186.373,242.075 190.429 M72.070 197.203 C 72.069 199.181,72.136 200.040,72.220 199.113 C 72.304 198.186,72.305 196.567,72.222 195.517 C 72.140 194.466,72.071 195.225,72.070 197.203 M88.446 196.603 C 88.446 198.252,88.517 198.926,88.603 198.102 C 88.689 197.278,88.689 195.929,88.603 195.105 C 88.517 194.281,88.446 194.955,88.446 196.603 M93.231 196.004 C 93.233 197.323,93.308 197.814,93.396 197.096 C 93.485 196.378,93.484 195.299,93.392 194.698 C 93.301 194.098,93.228 194.685,93.231 196.004 M90.310 197.602 C 90.310 198.372,90.453 199.001,90.629 199.001 C 90.805 199.001,90.875 198.372,90.785 197.602 C 90.695 196.833,90.552 196.204,90.466 196.204 C 90.380 196.204,90.310 196.833,90.310 197.602 M204.772 196.721 C 204.662 197.005,204.624 199.927,204.686 203.214 L 204.798 209.191 204.997 202.697 C 205.191 196.313,205.168 195.688,204.772 196.721 M208.990 206.113 L 209.190 215.984 209.298 206.421 C 209.357 201.161,209.267 196.719,209.098 196.550 C 208.929 196.381,208.881 200.684,208.990 206.113 M192.772 203.397 C 192.772 207.243,192.832 208.816,192.905 206.893 C 192.978 204.970,192.978 201.823,192.905 199.900 C 192.832 197.977,192.772 199.550,192.772 203.397 M148.751 200.076 C 149.136 200.176,149.765 200.176,150.150 200.076 C 150.534 199.975,150.220 199.893,149.451 199.893 C 148.681 199.893,148.367 199.975,148.751 200.076 M221.501 200.116 C 221.238 200.283,221.805 200.415,222.759 200.410 C 223.714 200.404,224.413 200.265,224.312 200.100 C 224.075 199.712,222.119 199.723,221.501 200.116 M325.519 200.127 C 325.408 200.308,325.847 200.377,326.495 200.282 C 327.142 200.187,327.672 200.040,327.672 199.955 C 327.672 199.650,325.717 199.807,325.519 200.127 M84.497 204.296 L 82.917 205.994 84.615 204.414 C 86.195 202.945,86.497 202.597,86.195 202.597 C 86.130 202.597,85.365 203.362,84.497 204.296 M264.842 203.686 C 265.561 203.775,266.639 203.773,267.240 203.682 C 267.840 203.591,267.253 203.518,265.934 203.520 C 264.615 203.523,264.124 203.597,264.842 203.686 M302.398 204.092 C 303.771 204.170,306.019 204.170,307.393 204.092 C 308.766 204.014,307.642 203.950,304.895 203.950 C 302.148 203.950,301.024 204.014,302.398 204.092 M242.318 209.990 C 242.318 213.287,242.380 214.582,242.455 212.869 C 242.530 211.156,242.530 208.458,242.454 206.875 C 242.379 205.291,242.317 206.693,242.318 209.990 M217.097 206.394 C 217.100 207.493,217.178 207.895,217.270 207.287 C 217.362 206.680,217.359 205.781,217.264 205.289 C 217.169 204.798,217.094 205.295,217.097 206.394 M103.696 206.593 C 104.555 207.473,105.347 208.192,105.457 208.192 C 105.567 208.192,104.954 207.473,104.096 206.593 C 103.237 205.714,102.445 204.995,102.335 204.995 C 102.225 204.995,102.838 205.714,103.696 206.593 M189.112 206.394 C 189.116 207.273,189.198 207.585,189.294 207.088 C 189.389 206.591,189.386 205.872,189.286 205.490 C 189.186 205.108,189.107 205.514,189.112 206.394 M74.050 207.251 C 74.609 207.913,74.655 208.157,74.250 208.319 C 73.899 208.459,73.883 208.539,74.202 208.560 C 75.099 208.619,75.106 207.899,74.216 207.146 L 73.327 206.394 74.050 207.251 M265.435 207.268 C 265.819 207.369,266.449 207.369,266.833 207.268 C 267.218 207.168,266.903 207.086,266.134 207.086 C 265.365 207.086,265.050 207.168,265.435 207.268 M85.115 209.191 C 84.144 210.180,83.440 210.989,83.550 210.989 C 83.660 210.989,84.544 210.180,85.514 209.191 C 86.485 208.202,87.189 207.393,87.079 207.393 C 86.970 207.393,86.086 208.202,85.115 209.191 M77.684 210.090 C 78.103 210.584,78.732 210.975,79.083 210.957 C 79.624 210.931,79.630 210.893,79.121 210.706 C 78.791 210.584,78.162 210.194,77.722 209.838 C 76.930 209.196,76.930 209.198,77.684 210.090 M313.698 210.857 C 314.155 211.590,314.149 211.836,313.662 212.455 C 313.135 213.125,313.146 213.141,313.786 212.638 C 314.664 211.950,314.676 211.244,313.822 210.538 C 313.217 210.039,313.206 210.067,313.698 210.857 M91.849 212.689 C 92.051 212.890,92.641 212.988,93.161 212.906 C 93.961 212.780,93.904 212.724,92.795 212.540 C 92.001 212.408,91.628 212.467,91.849 212.689 M78.589 212.860 C 78.846 213.044,79.138 213.822,79.239 214.589 C 79.415 215.925,79.420 215.918,79.372 214.417 C 79.338 213.393,79.113 212.793,78.721 212.688 C 78.312 212.578,78.270 212.633,78.589 212.860 M81.886 214.086 C 82.077 215.465,82.105 215.493,82.237 214.437 C 82.316 213.806,82.222 213.132,82.030 212.939 C 81.829 212.738,81.768 213.227,81.886 214.086 M102.046 216.983 C 102.046 219.291,102.112 220.235,102.193 219.081 C 102.273 217.927,102.273 216.039,102.193 214.885 C 102.112 213.731,102.046 214.675,102.046 216.983 M88.451 217.782 C 88.451 219.650,88.520 220.415,88.604 219.481 C 88.688 218.546,88.688 217.018,88.604 216.084 C 88.520 215.150,88.451 215.914,88.451 217.782 M90.441 218.382 C 90.443 219.920,90.515 220.500,90.601 219.671 C 90.688 218.842,90.686 217.584,90.598 216.874 C 90.510 216.165,90.439 216.843,90.441 218.382 M148.751 216.859 C 149.136 216.959,149.765 216.959,150.150 216.859 C 150.534 216.758,150.220 216.676,149.451 216.676 C 148.681 216.676,148.367 216.758,148.751 216.859 M264.236 216.859 C 264.620 216.959,265.250 216.959,265.634 216.859 C 266.019 216.758,265.704 216.676,264.935 216.676 C 264.166 216.676,263.851 216.758,264.236 216.859 M71.621 218.581 C 71.621 219.351,71.703 219.665,71.804 219.281 C 71.904 218.896,71.904 218.267,71.804 217.882 C 71.703 217.498,71.621 217.812,71.621 218.581 M82.027 219.381 C 82.027 220.370,82.105 220.774,82.200 220.280 C 82.295 219.785,82.295 218.976,82.200 218.482 C 82.105 217.987,82.027 218.392,82.027 219.381 M79.214 219.780 C 79.214 220.549,79.296 220.864,79.396 220.480 C 79.497 220.095,79.497 219.466,79.396 219.081 C 79.296 218.696,79.214 219.011,79.214 219.780 M121.179 238.437 C 121.563 238.538,122.193 238.538,122.577 238.437 C 122.962 238.337,122.647 238.255,121.878 238.255 C 121.109 238.255,120.794 238.337,121.179 238.437 " stroke="none" fill="#f4cc6c" fill-rule="evenodd"></path></g></svg>